<?xml version="1.0" encoding="UTF-8"?>
<svg width="24px" height="24px" viewBox="0 0 24 24" version="1.1" xmlns="http://www.w3.org/2000/svg" xmlns:xlink="http://www.w3.org/1999/xlink">
    <title>icon_found_select@2x</title>
    <defs>
        <linearGradient x1="50%" y1="0%" x2="50%" y2="59.0016284%" id="linearGradient-1">
            <stop stop-color="#FFFAFA" offset="0%"></stop>
            <stop stop-color="#FFE1E1" offset="100%"></stop>
        </linearGradient>
    </defs>
    <g id="icon_found_select" stroke="none" stroke-width="1" fill="none" fill-rule="evenodd">
        <g id="编组">
            <polygon id="Fill-1" fill="#606060" opacity="0" points="0 24 24 24 24 0 0 0"></polygon>
            <path d="M20.14615,6.3736 L19.31065,6.3736 L19.31065,6.2591 C19.31065,4.7926 18.01315,3.6036 16.41315,3.6036 L7.72165,3.6036 C6.12165,3.6036 4.82465,4.7926 4.82465,6.2591 L4.82465,6.3736 L3.43165,6.3736 C2.66265,6.3736 2.03865,6.9681 2.03865,7.7016 L2.03865,10.3661 C2.03865,11.8326 3.28565,13.0211 4.82415,13.0211 L5.47865,13.0211 C6.39665,14.8596 8.20365,16.2471 10.39615,16.7211 L10.39615,18.5611 L9.00265,18.5611 C8.07415,18.5611 7.61015,19.0216 7.61015,19.9436 L7.61015,19.9481 C7.61015,20.8701 8.07415,21.3311 9.00265,21.3311 L14.57415,21.3311 C15.50265,21.3311 15.96715,20.8701 15.96715,19.9481 L15.96715,19.9436 C15.96715,19.0216 15.50265,18.5611 14.57415,18.5611 L13.18115,18.5611 L13.18115,16.8211 C15.62315,16.4756 17.66115,15.0136 18.65615,13.0211 L18.75315,13.0211 C20.29165,13.0211 21.53865,11.8326 21.53865,10.3661 L21.53865,7.7011 C21.53915,6.9681 20.91515,6.3736 20.14615,6.3736" id="Fill-3" fill="#FF3D3D"></path>
            <path d="M15.1802,8.5842 C15.5712,8.9747 15.5712,9.6077 15.1802,9.9982 L12.3822,12.7962 C12.1872,12.9917 11.9312,13.0892 11.6752,13.0892 C11.4192,13.0892 11.1632,12.9917 10.9682,12.7962 C10.5777,12.4057 10.5777,11.7727 10.9682,11.3822 L13.7662,8.5842 C14.1562,8.1932 14.7902,8.1932 15.1802,8.5842 Z M12.70695,5.72295 C13.09745,6.11345 13.09745,6.74645 12.70695,7.13695 L10.90295,8.94095 C10.70795,9.13645 10.45195,9.23395 10.19595,9.23395 C9.93995,9.23395 9.68395,9.13645 9.48895,8.94095 C9.09845,8.55045 9.09845,7.91745 9.48895,7.52695 L11.29295,5.72295 C11.68295,5.33245 12.31695,5.33245 12.70695,5.72295 Z" id="形状结合" fill="url(#linearGradient-1)"></path>
        </g>
    </g>
</svg>