<?xml version="1.0" encoding="UTF-8"?>
<svg width="24px" height="24px" viewBox="0 0 24 24" version="1.1" xmlns="http://www.w3.org/2000/svg" xmlns:xlink="http://www.w3.org/1999/xlink">
    <title>icon_mine_nor@2x</title>
    <g id="icon_mine_nor" stroke="none" stroke-width="1" fill="none" fill-rule="evenodd">
        <g id="编组" transform="translate(0.045000, 0.010400)">
            <polygon id="Fill-3" fill="#606060" opacity="0" points="0 24 24 24 24 0 0 0"></polygon>
            <path d="M20.43305,9.9999 C20.43305,14.6944 16.62805,18.4999 11.93305,18.4999 C7.23855,18.4999 3.43305,14.6944 3.43305,9.9999 C3.43305,5.3054 7.23855,1.4999 11.93305,1.4999 C16.62805,1.4999 20.43305,5.3054 20.43305,9.9999" id="Fill-5" fill="#C4C7CC"></path>
            <path d="M11.99995,14.7499 C10.73045,14.7499 9.53745,14.2559 8.64095,13.3589 C8.25095,12.9684 8.25095,12.3349 8.64145,11.9444 C9.03195,11.5544 9.66545,11.5539 10.05595,11.9449 C10.57445,12.4644 11.26495,12.7499 11.99995,12.7499 C12.74545,12.7499 13.44345,12.4564 13.96495,11.9244 C14.35145,11.5294 14.98545,11.5239 15.37895,11.9094 C15.77345,12.2964 15.78045,12.9289 15.39345,13.3234 C14.49245,14.2434 13.28745,14.7499 11.99995,14.7499" id="Fill-7" fill="#EDEDED"></path>
            <path d="M11.95015,22.4999 C9.83815,22.4999 7.75215,21.9639 5.91565,20.9489 C5.43215,20.6819 5.25615,20.0734 5.52315,19.5904 C5.79115,19.1069 6.39915,18.9324 6.88215,19.1979 C8.42365,20.0499 10.17565,20.4999 11.95015,20.4999 C13.71715,20.4999 15.46415,20.0529 17.00215,19.2069 C17.48715,18.9414 18.09415,19.1179 18.36015,19.6014 C18.62665,20.0854 18.44965,20.6934 17.96565,20.9599 C16.13365,21.9674 14.05315,22.4999 11.95015,22.4999" id="Fill-9" fill="#C4C7CC"></path>
        </g>
    </g>
</svg>